<svg width="372" height="210" viewBox="0 0 372 210" fill="none" xmlns="http://www.w3.org/2000/svg">
<path d="M4.86 1.188C2.754 1.188 0.972 2.97 0.972 5.076C0.972 7.263 2.754 8.964 4.86 8.964H11.502V51.732C11.502 53.919 13.284 55.62 15.39 55.62C17.577 55.62 19.278 53.919 19.278 51.732V8.964H25.92C28.107 8.964 29.808 7.263 29.808 5.076C29.808 2.97 28.107 1.188 25.92 1.188H4.86ZM55.2325 4.752V23.544H43.5685V4.752C43.5685 2.646 41.8675 0.863999 39.6805 0.863999C37.5745 0.863999 35.7925 2.646 35.7925 4.752V51.732C35.7925 53.919 37.5745 55.62 39.6805 55.62C41.8675 55.62 43.5685 53.919 43.5685 51.732V31.32H55.2325V51.732C55.2325 53.919 57.0145 55.62 59.1205 55.62C61.3075 55.62 63.0085 53.919 63.0085 51.732V4.752C63.0085 2.646 61.3075 0.863999 59.1205 0.863999C57.0145 0.863999 55.2325 2.646 55.2325 4.752ZM72.2773 5.076V51.408C72.2773 53.595 74.0593 55.296 76.1653 55.296H92.3653C94.5523 55.296 96.2533 53.595 96.2533 51.408C96.2533 49.302 94.5523 47.52 92.3653 47.52H80.0533V31.32H90.7453C92.9323 31.32 94.6333 29.619 94.6333 27.432C94.6333 25.326 92.9323 23.544 90.7453 23.544H80.0533V8.964H92.3653C94.5523 8.964 96.2533 7.263 96.2533 5.076C96.2533 2.97 94.5523 1.188 92.3653 1.188H76.1653C74.0593 1.188 72.2773 2.97 72.2773 5.076ZM8.1 187.296C10.287 187.296 11.988 185.595 11.988 183.408V163.32H22.68C24.867 163.32 26.568 161.619 26.568 159.432C26.568 157.326 24.867 155.544 22.68 155.544H11.988V140.964H24.3C26.487 140.964 28.188 139.263 28.188 137.076C28.188 134.97 26.487 133.188 24.3 133.188H8.1C5.994 133.188 4.212 134.97 4.212 137.076V183.408C4.212 185.595 5.994 187.296 8.1 187.296ZM46.8465 187.62C54.3795 187.62 60.4545 181.545 60.4545 174.012V146.472C60.4545 138.939 54.3795 132.864 46.8465 132.864C39.3135 132.864 33.2385 138.939 33.2385 146.472V174.012C33.2385 181.545 39.3135 187.62 46.8465 187.62ZM46.8465 140.64C50.0865 140.64 52.6785 143.232 52.6785 146.472V174.012C52.6785 177.252 50.0865 179.844 46.8465 179.844C43.6065 179.844 41.0145 177.252 41.0145 174.012V146.472C41.0145 143.232 43.6065 140.64 46.8465 140.64ZM75.8457 174.012V136.752C75.8457 134.646 74.0637 132.864 71.9577 132.864C69.7707 132.864 68.0697 134.646 68.0697 136.752V174.012C68.0697 181.545 74.1447 187.62 81.6777 187.62C89.1297 187.62 95.2857 181.545 95.2857 174.012V136.752C95.2857 134.646 93.5037 132.864 91.3977 132.864C89.2107 132.864 87.5097 134.646 87.5097 136.752V174.012C87.5097 177.252 84.8367 179.844 81.6777 179.844C78.4377 179.844 75.8457 177.252 75.8457 174.012ZM131.317 187.539C133.018 187.134 134.314 185.514 134.314 183.732V136.752C134.314 134.646 132.532 132.864 130.426 132.864C128.239 132.864 126.538 134.646 126.538 136.752C126.538 136.752 126.538 152.871 126.538 166.722C119.815 152.79 111.229 135.051 111.229 135.051C110.419 133.431 108.637 132.54 106.855 132.945C105.073 133.35 103.858 134.97 103.858 136.752V183.732C103.858 185.919 105.559 187.62 107.746 187.62C109.852 187.62 111.634 185.919 111.634 183.732C111.634 183.732 111.634 167.613 111.634 153.762C118.357 167.694 126.943 185.433 126.943 185.433C127.672 187.053 129.535 187.944 131.317 187.539ZM147.474 133.188C145.287 133.188 143.586 134.97 143.586 137.076V183.408C143.586 185.595 145.287 187.296 147.474 187.296H157.194C164.727 187.296 170.802 181.221 170.802 173.688V146.796C170.802 139.263 164.727 133.188 157.194 133.188H147.474ZM163.026 146.796V173.688C163.026 176.928 160.434 179.52 157.194 179.52H151.362V140.964H157.194C160.434 140.964 163.026 143.556 163.026 146.796ZM195.261 135.699C194.856 133.998 193.317 132.864 191.535 132.864C189.753 132.864 188.214 133.998 187.809 135.699L174.849 182.679C174.282 184.785 175.497 186.891 177.522 187.458C179.628 188.025 181.734 186.81 182.301 184.785C182.301 184.785 183.273 181.302 184.65 176.28H198.42C199.797 181.302 200.769 184.785 200.769 184.785C201.336 186.81 203.442 188.025 205.548 187.458C207.573 186.891 208.788 184.785 208.221 182.679L195.261 135.699ZM186.837 168.504C188.376 162.915 190.077 156.678 191.535 151.413C192.993 156.678 194.694 162.915 196.233 168.504H186.837ZM210.638 133.188C208.532 133.188 206.75 134.97 206.75 137.076C206.75 139.263 208.532 140.964 210.638 140.964H217.28V183.732C217.28 185.919 219.062 187.62 221.168 187.62C223.355 187.62 225.056 185.919 225.056 183.732V140.964H231.698C233.885 140.964 235.586 139.263 235.586 137.076C235.586 134.97 233.885 133.188 231.698 133.188H210.638ZM245.458 187.62C247.645 187.62 249.346 185.919 249.346 183.732V136.752C249.346 134.646 247.645 132.864 245.458 132.864C243.352 132.864 241.57 134.646 241.57 136.752V183.732C241.57 185.919 243.352 187.62 245.458 187.62ZM271.232 187.62C278.765 187.62 284.84 181.545 284.84 174.012V146.472C284.84 138.939 278.765 132.864 271.232 132.864C263.699 132.864 257.624 138.939 257.624 146.472V174.012C257.624 181.545 263.699 187.62 271.232 187.62ZM271.232 140.64C274.472 140.64 277.064 143.232 277.064 146.472V174.012C277.064 177.252 274.472 179.844 271.232 179.844C267.992 179.844 265.4 177.252 265.4 174.012V146.472C265.4 143.232 267.992 140.64 271.232 140.64ZM320.563 187.539C322.264 187.134 323.56 185.514 323.56 183.732V136.752C323.56 134.646 321.778 132.864 319.672 132.864C317.485 132.864 315.784 134.646 315.784 136.752C315.784 136.752 315.784 152.871 315.784 166.722C309.061 152.79 300.475 135.051 300.475 135.051C299.665 133.431 297.883 132.54 296.101 132.945C294.319 133.35 293.104 134.97 293.104 136.752V183.732C293.104 185.919 294.805 187.62 296.992 187.62C299.098 187.62 300.88 185.919 300.88 183.732C300.88 183.732 300.88 167.613 300.88 153.762C307.603 167.694 316.189 185.433 316.189 185.433C316.918 187.053 318.781 187.944 320.563 187.539Z" fill="#1B1A18"/>
<path d="M26.568 91.164H18.468C16.362 91.164 14.58 92.946 14.58 95.052C14.58 97.239 16.362 98.94 18.468 98.94H22.68V108.012C22.68 111.252 20.088 113.844 16.848 113.844C13.689 113.844 11.016 111.252 11.016 108.012V80.472C11.016 77.88 12.798 75.531 15.39 74.883C17.901 74.154 20.574 75.288 21.951 77.556C23.004 79.419 25.353 80.067 27.216 79.014C29.079 77.88 29.727 75.531 28.674 73.668C25.596 68.322 19.278 65.73 13.365 67.35C7.371 68.889 3.24 74.316 3.24 80.472V108.012C3.24 115.545 9.396 121.62 16.848 121.62C24.381 121.62 30.456 115.545 30.456 108.012V95.052C30.456 92.946 28.755 91.164 26.568 91.164ZM65.6189 85.332V80.796C65.6189 73.263 59.5439 67.188 52.0109 67.188H42.2909C40.1849 67.188 38.4029 68.97 38.4029 71.076V117.732C38.4029 119.919 40.1849 121.62 42.2909 121.62C44.4779 121.62 46.1789 119.919 46.1789 117.732V98.94H50.5529L58.0859 119.109C58.8959 121.134 61.0829 122.106 63.1079 121.377C65.1329 120.648 66.1859 118.38 65.3759 116.355L58.3289 97.401C62.7029 95.133 65.6189 90.597 65.6189 85.332ZM46.1789 74.964H52.0109C55.2509 74.964 57.8429 77.556 57.8429 80.796V85.332C57.8429 88.572 55.2509 91.164 52.0109 91.164H46.1789V74.964ZM72.9101 71.076V117.408C72.9101 119.595 74.6921 121.296 76.7981 121.296H92.9981C95.1851 121.296 96.8861 119.595 96.8861 117.408C96.8861 115.302 95.1851 113.52 92.9981 113.52H80.6861V97.32H91.3781C93.5651 97.32 95.2661 95.619 95.2661 93.432C95.2661 91.326 93.5651 89.544 91.3781 89.544H80.6861V74.964H92.9981C95.1851 74.964 96.8861 73.263 96.8861 71.076C96.8861 68.97 95.1851 67.188 92.9981 67.188H76.7981C74.6921 67.188 72.9101 68.97 72.9101 71.076ZM103.541 71.076V117.408C103.541 119.595 105.323 121.296 107.429 121.296H123.629C125.816 121.296 127.517 119.595 127.517 117.408C127.517 115.302 125.816 113.52 123.629 113.52H111.317V97.32H122.009C124.196 97.32 125.897 95.619 125.897 93.432C125.897 91.326 124.196 89.544 122.009 89.544H111.317V74.964H123.629C125.816 74.964 127.517 73.263 127.517 71.076C127.517 68.97 125.816 67.188 123.629 67.188H107.429C105.323 67.188 103.541 68.97 103.541 71.076ZM161.632 121.539C163.333 121.134 164.629 119.514 164.629 117.732V70.752C164.629 68.646 162.847 66.864 160.741 66.864C158.554 66.864 156.853 68.646 156.853 70.752C156.853 70.752 156.853 86.871 156.853 100.722C150.13 86.79 141.544 69.051 141.544 69.051C140.734 67.431 138.952 66.54 137.17 66.945C135.388 67.35 134.173 68.97 134.173 70.752V117.732C134.173 119.919 135.874 121.62 138.061 121.62C140.167 121.62 141.949 119.919 141.949 117.732C141.949 117.732 141.949 101.613 141.949 87.762C148.672 101.694 157.258 119.433 157.258 119.433C157.987 121.053 159.85 121.944 161.632 121.539ZM190.699 66.945C188.674 67.512 187.378 69.618 187.864 71.643L199.204 118.623C199.609 120.405 201.229 121.62 203.011 121.62C204.793 121.62 206.332 120.405 206.737 118.623C206.737 118.623 210.949 101.208 214.351 87.357C217.672 101.208 221.884 118.623 221.884 118.623C222.289 120.405 223.909 121.62 225.691 121.62C227.473 121.62 229.012 120.405 229.417 118.623L240.757 71.643C241.324 69.618 240.028 67.512 237.922 66.945C235.816 66.459 233.71 67.755 233.224 69.861C233.224 69.861 229.012 87.276 225.691 101.127C222.289 87.276 218.077 69.861 218.077 69.861C217.672 68.079 216.133 66.864 214.351 66.864C212.569 66.864 210.949 68.079 210.544 69.861C210.544 69.861 206.332 87.276 203.011 101.127C199.609 87.276 195.397 69.861 195.397 69.861C194.911 67.755 192.805 66.459 190.699 66.945ZM247.661 71.076V117.408C247.661 119.595 249.443 121.296 251.549 121.296H267.749C269.936 121.296 271.637 119.595 271.637 117.408C271.637 115.302 269.936 113.52 267.749 113.52H255.437V97.32H266.129C268.316 97.32 270.017 95.619 270.017 93.432C270.017 91.326 268.316 89.544 266.129 89.544H255.437V74.964H267.749C269.936 74.964 271.637 73.263 271.637 71.076C271.637 68.97 269.936 67.188 267.749 67.188H251.549C249.443 67.188 247.661 68.97 247.661 71.076ZM305.509 83.712V80.796C305.509 73.263 299.353 67.188 291.901 67.188H282.181C279.994 67.188 278.293 68.97 278.293 71.076V117.408C278.293 119.595 279.994 121.296 282.181 121.296H291.901C299.353 121.296 305.509 115.221 305.509 107.688V103.152C305.509 99.345 303.889 95.943 301.378 93.432C303.889 91.002 305.509 87.519 305.509 83.712ZM297.733 103.152V107.688C297.733 110.928 295.141 113.52 291.901 113.52H286.069V97.32H291.901C295.141 97.32 297.733 99.912 297.733 103.152ZM286.069 89.544V74.964H291.901C295.141 74.964 297.733 77.556 297.733 80.796V83.712C297.733 86.952 295.141 89.544 291.901 89.544H286.069Z" fill="#65B54C"/>
</svg>
