<svg width="765" height="58" viewBox="0 0 765 58" fill="none" xmlns="http://www.w3.org/2000/svg">
<path d="M4.86 2.188C2.754 2.188 0.972 3.97 0.972 6.076C0.972 8.263 2.754 9.964 4.86 9.964H11.502V52.732C11.502 54.919 13.284 56.62 15.39 56.62C17.577 56.62 19.278 54.919 19.278 52.732V9.964H25.92C28.107 9.964 29.808 8.263 29.808 6.076C29.808 3.97 28.107 2.188 25.92 2.188H4.86ZM55.2325 5.752V24.544H43.5685V5.752C43.5685 3.646 41.8675 1.864 39.6805 1.864C37.5745 1.864 35.7925 3.646 35.7925 5.752V52.732C35.7925 54.919 37.5745 56.62 39.6805 56.62C41.8675 56.62 43.5685 54.919 43.5685 52.732V32.32H55.2325V52.732C55.2325 54.919 57.0145 56.62 59.1205 56.62C61.3075 56.62 63.0085 54.919 63.0085 52.732V5.752C63.0085 3.646 61.3075 1.864 59.1205 1.864C57.0145 1.864 55.2325 3.646 55.2325 5.752ZM72.2773 6.076V52.408C72.2773 54.595 74.0593 56.296 76.1653 56.296H92.3653C94.5523 56.296 96.2533 54.595 96.2533 52.408C96.2533 50.302 94.5523 48.52 92.3653 48.52H80.0533V32.32H90.7453C92.9323 32.32 94.6333 30.619 94.6333 28.432C94.6333 26.326 92.9323 24.544 90.7453 24.544H80.0533V9.964H92.3653C94.5523 9.964 96.2533 8.263 96.2533 6.076C96.2533 3.97 94.5523 2.188 92.3653 2.188H76.1653C74.0593 2.188 72.2773 3.97 72.2773 6.076ZM449.12 56.296C451.307 56.296 453.008 54.595 453.008 52.408V32.32H463.7C465.887 32.32 467.588 30.619 467.588 28.432C467.588 26.326 465.887 24.544 463.7 24.544H453.008V9.964H465.32C467.507 9.964 469.208 8.263 469.208 6.076C469.208 3.97 467.507 2.188 465.32 2.188H449.12C447.014 2.188 445.232 3.97 445.232 6.076V52.408C445.232 54.595 447.014 56.296 449.12 56.296ZM487.866 56.62C495.399 56.62 501.474 50.545 501.474 43.012V15.472C501.474 7.939 495.399 1.864 487.866 1.864C480.333 1.864 474.258 7.939 474.258 15.472V43.012C474.258 50.545 480.333 56.62 487.866 56.62ZM487.866 9.64C491.106 9.64 493.698 12.232 493.698 15.472V43.012C493.698 46.252 491.106 48.844 487.866 48.844C484.626 48.844 482.034 46.252 482.034 43.012V15.472C482.034 12.232 484.626 9.64 487.866 9.64ZM516.865 43.012V5.752C516.865 3.646 515.083 1.864 512.977 1.864C510.79 1.864 509.089 3.646 509.089 5.752V43.012C509.089 50.545 515.164 56.62 522.697 56.62C530.149 56.62 536.305 50.545 536.305 43.012V5.752C536.305 3.646 534.523 1.864 532.417 1.864C530.23 1.864 528.529 3.646 528.529 5.752V43.012C528.529 46.252 525.856 48.844 522.697 48.844C519.457 48.844 516.865 46.252 516.865 43.012ZM572.337 56.539C574.038 56.134 575.334 54.514 575.334 52.732V5.752C575.334 3.646 573.552 1.864 571.446 1.864C569.259 1.864 567.558 3.646 567.558 5.752C567.558 5.752 567.558 21.871 567.558 35.722C560.835 21.79 552.249 4.051 552.249 4.051C551.439 2.431 549.657 1.54 547.875 1.945C546.093 2.35 544.878 3.97 544.878 5.752V52.732C544.878 54.919 546.579 56.62 548.766 56.62C550.872 56.62 552.654 54.919 552.654 52.732C552.654 52.732 552.654 36.613 552.654 22.762C559.377 36.694 567.963 54.433 567.963 54.433C568.692 56.053 570.555 56.944 572.337 56.539ZM588.493 2.188C586.306 2.188 584.605 3.97 584.605 6.076V52.408C584.605 54.595 586.306 56.296 588.493 56.296H598.213C605.746 56.296 611.821 50.221 611.821 42.688V15.796C611.821 8.263 605.746 2.188 598.213 2.188H588.493ZM604.045 15.796V42.688C604.045 45.928 601.453 48.52 598.213 48.52H592.381V9.964H598.213C601.453 9.964 604.045 12.556 604.045 15.796ZM636.281 4.699C635.876 2.998 634.337 1.864 632.555 1.864C630.773 1.864 629.234 2.998 628.829 4.699L615.869 51.679C615.302 53.785 616.517 55.891 618.542 56.458C620.648 57.025 622.754 55.81 623.321 53.785C623.321 53.785 624.293 50.302 625.67 45.28H639.44C640.817 50.302 641.789 53.785 641.789 53.785C642.356 55.81 644.462 57.025 646.568 56.458C648.593 55.891 649.808 53.785 649.241 51.679L636.281 4.699ZM627.857 37.504C629.396 31.915 631.097 25.678 632.555 20.413C634.013 25.678 635.714 31.915 637.253 37.504H627.857ZM651.658 2.188C649.552 2.188 647.77 3.97 647.77 6.076C647.77 8.263 649.552 9.964 651.658 9.964H658.3V52.732C658.3 54.919 660.082 56.62 662.188 56.62C664.375 56.62 666.076 54.919 666.076 52.732V9.964H672.718C674.905 9.964 676.606 8.263 676.606 6.076C676.606 3.97 674.905 2.188 672.718 2.188H651.658ZM686.478 56.62C688.665 56.62 690.366 54.919 690.366 52.732V5.752C690.366 3.646 688.665 1.864 686.478 1.864C684.372 1.864 682.59 3.646 682.59 5.752V52.732C682.59 54.919 684.372 56.62 686.478 56.62ZM712.252 56.62C719.785 56.62 725.86 50.545 725.86 43.012V15.472C725.86 7.939 719.785 1.864 712.252 1.864C704.719 1.864 698.644 7.939 698.644 15.472V43.012C698.644 50.545 704.719 56.62 712.252 56.62ZM712.252 9.64C715.492 9.64 718.084 12.232 718.084 15.472V43.012C718.084 46.252 715.492 48.844 712.252 48.844C709.012 48.844 706.42 46.252 706.42 43.012V15.472C706.42 12.232 709.012 9.64 712.252 9.64ZM761.582 56.539C763.283 56.134 764.579 54.514 764.579 52.732V5.752C764.579 3.646 762.797 1.864 760.691 1.864C758.504 1.864 756.803 3.646 756.803 5.752C756.803 5.752 756.803 21.871 756.803 35.722C750.08 21.79 741.494 4.051 741.494 4.051C740.684 2.431 738.902 1.54 737.12 1.945C735.338 2.35 734.123 3.97 734.123 5.752V52.732C734.123 54.919 735.824 56.62 738.011 56.62C740.117 56.62 741.899 54.919 741.899 52.732C741.899 52.732 741.899 36.613 741.899 22.762C748.622 36.694 757.208 54.433 757.208 54.433C757.937 56.053 759.8 56.944 761.582 56.539Z" fill="#CECCCA"/>
<path d="M141.658 26.164H133.558C131.452 26.164 129.67 27.946 129.67 30.052C129.67 32.239 131.452 33.94 133.558 33.94H137.77V43.012C137.77 46.252 135.178 48.844 131.938 48.844C128.779 48.844 126.106 46.252 126.106 43.012V15.472C126.106 12.88 127.888 10.531 130.48 9.883C132.991 9.154 135.664 10.288 137.041 12.556C138.094 14.419 140.443 15.067 142.306 14.014C144.169 12.88 144.817 10.531 143.764 8.668C140.686 3.322 134.368 0.729999 128.455 2.35C122.461 3.889 118.33 9.316 118.33 15.472V43.012C118.33 50.545 124.486 56.62 131.938 56.62C139.471 56.62 145.546 50.545 145.546 43.012V30.052C145.546 27.946 143.845 26.164 141.658 26.164ZM180.708 20.332V15.796C180.708 8.263 174.633 2.188 167.1 2.188H157.38C155.274 2.188 153.492 3.97 153.492 6.076V52.732C153.492 54.919 155.274 56.62 157.38 56.62C159.567 56.62 161.268 54.919 161.268 52.732V33.94H165.642L173.175 54.109C173.985 56.134 176.172 57.106 178.197 56.377C180.222 55.648 181.275 53.38 180.465 51.355L173.418 32.401C177.792 30.133 180.708 25.597 180.708 20.332ZM161.268 9.964H167.1C170.34 9.964 172.932 12.556 172.932 15.796V20.332C172.932 23.572 170.34 26.164 167.1 26.164H161.268V9.964ZM188 6.076V52.408C188 54.595 189.782 56.296 191.888 56.296H208.088C210.275 56.296 211.976 54.595 211.976 52.408C211.976 50.302 210.275 48.52 208.088 48.52H195.776V32.32H206.468C208.655 32.32 210.356 30.619 210.356 28.432C210.356 26.326 208.655 24.544 206.468 24.544H195.776V9.964H208.088C210.275 9.964 211.976 8.263 211.976 6.076C211.976 3.97 210.275 2.188 208.088 2.188H191.888C189.782 2.188 188 3.97 188 6.076ZM218.631 6.076V52.408C218.631 54.595 220.413 56.296 222.519 56.296H238.719C240.906 56.296 242.607 54.595 242.607 52.408C242.607 50.302 240.906 48.52 238.719 48.52H226.407V32.32H237.099C239.286 32.32 240.987 30.619 240.987 28.432C240.987 26.326 239.286 24.544 237.099 24.544H226.407V9.964H238.719C240.906 9.964 242.607 8.263 242.607 6.076C242.607 3.97 240.906 2.188 238.719 2.188H222.519C220.413 2.188 218.631 3.97 218.631 6.076ZM276.721 56.539C278.422 56.134 279.718 54.514 279.718 52.732V5.752C279.718 3.646 277.936 1.864 275.83 1.864C273.643 1.864 271.942 3.646 271.942 5.752C271.942 5.752 271.942 21.871 271.942 35.722C265.219 21.79 256.633 4.051 256.633 4.051C255.823 2.431 254.041 1.54 252.259 1.945C250.477 2.35 249.262 3.97 249.262 5.752V52.732C249.262 54.919 250.963 56.62 253.15 56.62C255.256 56.62 257.038 54.919 257.038 52.732C257.038 52.732 257.038 36.613 257.038 22.762C263.761 36.694 272.347 54.433 272.347 54.433C273.076 56.053 274.939 56.944 276.721 56.539ZM305.788 1.945C303.763 2.512 302.467 4.618 302.953 6.643L314.293 53.623C314.698 55.405 316.318 56.62 318.1 56.62C319.882 56.62 321.421 55.405 321.826 53.623C321.826 53.623 326.038 36.208 329.44 22.357C332.761 36.208 336.973 53.623 336.973 53.623C337.378 55.405 338.998 56.62 340.78 56.62C342.562 56.62 344.101 55.405 344.506 53.623L355.846 6.643C356.413 4.618 355.117 2.512 353.011 1.945C350.905 1.459 348.799 2.755 348.313 4.861C348.313 4.861 344.101 22.276 340.78 36.127C337.378 22.276 333.166 4.861 333.166 4.861C332.761 3.079 331.222 1.864 329.44 1.864C327.658 1.864 326.038 3.079 325.633 4.861C325.633 4.861 321.421 22.276 318.1 36.127C314.698 22.276 310.486 4.861 310.486 4.861C310 2.755 307.894 1.459 305.788 1.945ZM362.751 6.076V52.408C362.751 54.595 364.533 56.296 366.639 56.296H382.839C385.026 56.296 386.727 54.595 386.727 52.408C386.727 50.302 385.026 48.52 382.839 48.52H370.527V32.32H381.219C383.406 32.32 385.107 30.619 385.107 28.432C385.107 26.326 383.406 24.544 381.219 24.544H370.527V9.964H382.839C385.026 9.964 386.727 8.263 386.727 6.076C386.727 3.97 385.026 2.188 382.839 2.188H366.639C364.533 2.188 362.751 3.97 362.751 6.076ZM420.598 18.712V15.796C420.598 8.263 414.442 2.188 406.99 2.188H397.27C395.083 2.188 393.382 3.97 393.382 6.076V52.408C393.382 54.595 395.083 56.296 397.27 56.296H406.99C414.442 56.296 420.598 50.221 420.598 42.688V38.152C420.598 34.345 418.978 30.943 416.467 28.432C418.978 26.002 420.598 22.519 420.598 18.712ZM412.822 38.152V42.688C412.822 45.928 410.23 48.52 406.99 48.52H401.158V32.32H406.99C410.23 32.32 412.822 34.912 412.822 38.152ZM401.158 24.544V9.964H406.99C410.23 9.964 412.822 12.556 412.822 15.796V18.712C412.822 21.952 410.23 24.544 406.99 24.544H401.158Z" fill="#65B54C"/>
</svg>
